# xmcd CD database file
#
# Track frame offsets:
#	150
#	13862
#	30147
#	40417
#	57622
#	72157
#	86072
#	100852
#	116245
#	129275
#	143200
#	158195
#	171055
#	185143
#	194885
#	211643
#	233993
#	247319
#	261581
#	273539
#
# Disc length: 3805 seconds
#
# Revision: 2
# Processed by: cddbd v1.5PL3 Copyright (c) Steve Scherf et al.
# Submitted via: CDex 1.51
#
DISCID=350edb14
DTITLE=Hazy Osterwald - mit Sextett - Jetset - Entertainers, CD 2
DYEAR=1900
DGENRE=Jazz
TTITLE0=Forget Me Not
TTITLE1=Mambito
TTITLE2=Bach Goes To Town
TTITLE3=Marmaduke
TTITLE4=Blue Tango
TTITLE5=You Belong To Me
TTITLE6=Delicado
TTITLE7=Aba-Daba Honeymoon
TTITLE8=Der kleine Jimmy
TTITLE9=Ruby
TTITLE10=I Know That You Know
TTITLE11=Tide
TTITLE12=Don't Blame Me
TTITLE13=Three Coins In The Fountain
TTITLE14=Swiss Air
TTITLE15=Lovely Thoughts
TTITLE16=The Trailer
TTITLE17=Tired Cats
TTITLE18=Headache
TTITLE19=Undecided
EXTD=
EXTT0=
EXTT1=
EXTT2=
EXTT3=
EXTT4=
EXTT5=
EXTT6=
EXTT7=
EXTT8=
EXTT9=
EXTT10=
EXTT11=
EXTT12=
EXTT13=
EXTT14=
EXTT15=
EXTT16=
EXTT17=
EXTT18=
EXTT19=
PLAYORDER=
